<svg xmlns="http://www.w3.org/2000/svg" xml:space="preserve" viewBox="0 0 440 100" version="1.1">
  <path class="garage" d="m145.09 84.045c0 1.0886-0.16706 2.1071-0.50706 3.0601-0.33881 0.95298-0.81526 1.7879-1.4411 2.4988-0.61882 0.70976-1.3694 1.2722-2.2517 1.6815-0.87526 0.40809-1.8223 0.61505-2.834 0.61505h-16.167c-0.94115 0-2.0435-0.33091-3.2999-0.98806s-2.3352-1.5341-3.2399-2.6169c-0.9-1.089-1.35-2.226-1.35-3.416v-11.201c0-0.91673 0.35646-1.8943 1.0658-2.9431 0.70822-1.0407 1.6317-1.9235 2.7811-2.6333 1.1435-0.71094 2.3176-1.0664 3.514-1.0664h22.945v5.8255h-18.841c-0.7094 0-1.3823 0.17189-2.007 0.50981-0.63175 0.34377-1.1376 0.78109-1.52 1.3143-0.38588 0.52735-0.57764 1.0711-0.57764 1.6277v5.4945c0 0.85827 0.19176 1.6043 0.57764 2.2497 0.38234 0.63961 0.90585 1.1307 1.567 1.4733 0.66705 0.33793 1.4176 0.50981 2.2517 0.50981h9.6009c0.66234 0 1.2282-0.17189 1.6988-0.50981 0.47056-0.34261 0.70821-0.81033 0.70821-1.3961 0-0.59284-0.19647-1.0372-0.59528-1.3388-0.39293-0.30168-0.81644-0.45018-1.2694-0.45018h-7.0692v-5.8255h8.9339c0.0835 0.01286 0.54233 0.10757 1.3823 0.27829 0.83997 0.17189 1.7094 0.50981 2.6152 1.0126 0.8988 0.5028 1.6847 1.2664 2.34 2.2918 0.66115 1.0231 0.98938 2.3374 0.98938 3.9429zm37.245 7.8554h-7.5045v-1.7341c-0.19647 0.4268-0.59645 0.82319-1.1847 1.1903-0.59647 0.36014-1.1329 0.54372-1.6094 0.54372h-20.323c-0.54823 0-1.0964-0.14149-1.6494-0.42563-0.5541-0.28414-1.007-0.6817-1.3529-1.1845-0.35059-0.50865-0.5294-1.0839-0.54235-1.7165-0.0113-1.2254-0.0235-2.7771-0.0411-4.648-0.0176-1.8767-0.0294-2.8648-0.0294-2.9653 0-1.4032 0.37528-2.5046 1.1258-3.3044 0.7494-0.80448 1.6258-1.2067 2.6258-1.2067h19.228c0.88704 0 1.6623 0.2245 2.3235 0.67468 0.66116 0.45018 1.1376 0.90504 1.4294 1.3552v-2.2614c0-0.47357-0.14353-0.95298-0.4294-1.4441-0.28588-0.48643-0.68469-0.89452-1.2094-1.2137-0.52351-0.32507-1.1364-0.48526-1.8341-0.48526h-23.016v-6.0394h25.952c1.0906 0 2.127 0.2666 3.1034 0.7998 0.97644 0.53203 1.8399 1.2196 2.5846 2.072 0.73881 0.84657 1.3223 1.7282 1.7341 2.6403 0.41058 0.9179 0.61881 1.7282 0.61881 2.445v16.908zm-8.9339-7.7373c0-0.3087-0.12001-0.59284-0.35176-0.85242-0.23175-0.26075-0.51762-0.46772-0.8635-0.62791-0.33999-0.15435-0.61998-0.23152-0.82821-0.23152h-14.182c-0.64938 0-1.1082 0.21983-1.3646 0.65832-0.24941 0.43849-0.38117 0.78109-0.38117 1.0185 0 0.50864 0.16705 0.91673 0.50116 1.2301 0.32705 0.31454 0.65998 0.46772 0.99997 0.46772h14.825c0.32823 0 0.68469-0.17072 1.067-0.50865 0.38705-0.34377 0.57763-0.72847 0.57763-1.1541zm55.05 15.837h-9.3574l-16.476-17.584h-9.3268v9.4842h-7.2551v-15.451h22.617c0.45176 0 0.90468-0.16604 1.3447-0.49228 0.44116-0.33091 0.66114-0.79279 0.66114-1.3798 0-0.42563-0.10699-0.7694-0.32117-1.0231-0.2141-0.25491-0.49997-0.43849-0.84584-0.55659-0.35176-0.11225-0.71411-0.17189-1.1012-0.17189h-22.355v-5.7904h27.31c1.2812 0 2.3764 0.45603 3.2999 1.3681 0.91763 0.9179 1.3764 2.0124 1.3764 3.2974v6.2043c0 1.1015-0.22706 1.9539-0.67293 2.5584-0.44704 0.60921-0.9835 1.029-1.6082 1.2605-0.62587 0.23035-1.3412 0.39055-2.1505 0.48526-0.81056 0.08887-1.287 0.16019-1.4294 0.20697l16.28 17.585zm26.489-8.0997h-7.5057v-1.7341c-0.19645 0.4268-0.59526 0.82319-1.1847 1.1903-0.59527 0.36014-1.1317 0.54372-1.6082 0.54372h-20.323c-0.54823 0-1.0964-0.14149-1.6506-0.42563-0.5541-0.28414-1.007-0.6817-1.3529-1.1845-0.35058-0.50865-0.5294-1.0839-0.54117-1.7165-0.0113-1.2254-0.0235-2.7771-0.0422-4.648-0.0176-1.8767-0.0294-2.8648-0.0294-2.9653 0-1.4032 0.37528-2.5046 1.1258-3.3044 0.75057-0.80448 1.6258-1.2067 2.627-1.2067h19.227c0.88822 0 1.6623 0.2245 2.3235 0.67468 0.66116 0.45018 1.1376 0.90504 1.4294 1.3552v-2.2614c0-0.47357-0.14233-0.95298-0.42821-1.4441-0.28588-0.48643-0.68587-0.89452-1.2094-1.2137-0.52467-0.32507-1.1376-0.48526-1.8341-0.48526h-23.016v-6.0394h25.952c1.0894 0 2.1258 0.2666 3.1023 0.7998 0.97762 0.53203 1.8411 1.2196 2.5858 2.072 0.73881 0.84657 1.3223 1.7282 1.7329 2.6403 0.41176 0.9179 0.61999 1.7282 0.61999 2.445v16.908zm-8.935-7.7373c0-0.3087-0.11875-0.59284-0.35057-0.85242-0.23295-0.26075-0.51882-0.46772-0.86469-0.62791-0.33882-0.15435-0.6188-0.23152-0.82704-0.23152h-14.183c-0.64822 0-1.1082 0.21983-1.3635 0.65832-0.25058 0.43849-0.38117 0.78109-0.38117 1.0185 0 0.50864 0.16588 0.91673 0.49998 1.2301 0.32706 0.31454 0.66117 0.46772 0.99998 0.46772h14.827c0.32704 0 0.68468-0.17072 1.0658-0.50865 0.38705-0.34377 0.57763-0.72847 0.57763-1.1541zm43.202-0.1181c0 1.0886-0.16704 2.1071-0.50586 3.0601-0.33999 0.95298-0.81645 1.7879-1.4423 2.4988-0.6188 0.70976-1.3694 1.2722-2.2517 1.6815-0.87528 0.40809-1.8223 0.61505-2.8352 0.61505h-16.165c-0.94115 0-2.0423-0.33091-3.2999-0.98806-1.2564-0.65715-2.3352-1.5341-3.2399-2.6169-0.89997-1.0898-1.3529-2.2263-1.3529-3.4167v-11.201c0-0.91673 0.35763-1.8943 1.067-2.9431 0.70821-1.0407 1.6317-1.9235 2.7811-2.6333 1.1435-0.71094 2.3176-1.0664 3.5152-1.0664h22.943v5.8255h-18.839c-0.70939 0-1.3811 0.17189-2.007 0.50981-0.63174 0.34377-1.1376 0.78109-1.5188 1.3143-0.38822 0.52735-0.57763 1.0711-0.57763 1.6277v5.4945c0 0.85827 0.18941 1.6043 0.57763 2.2497 0.38116 0.63961 0.90468 1.1307 1.5658 1.4733 0.66704 0.33793 1.4176 0.50981 2.2517 0.50981h9.6021c0.66115 0 1.227-0.17189 1.6976-0.50981 0.47057-0.34261 0.70822-0.81033 0.70822-1.3961 0-0.59284-0.19647-1.0372-0.59528-1.3388-0.39294-0.30168-0.81645-0.45018-1.2694-0.45018h-7.0704v-5.8255h8.9351c0.0835 0.01286 0.54233 0.10757 1.3823 0.27829 0.83999 0.17189 1.7094 0.50981 2.6152 1.0126 0.89881 0.5028 1.6847 1.2664 2.3399 2.2918 0.66117 1.0231 0.98938 2.3374 0.98938 3.9429zm36.78-5.672c0 1.1073-0.29764 2.0428-0.88703 2.8005-0.59528 0.75771-1.5847 1.1366-2.9717 1.1366l-22.844-0.03625v1.2149c0 0.62674 0.24469 1.2079 0.72704 1.7458 0.48234 0.53905 1.0011 0.80565 1.5611 0.80565h24.033v5.8605h-25.38c-1.6847 0-3.1446-0.44316-4.3775-1.326-1.2329-0.88165-2.174-1.9177-2.8117-3.0963-0.63763-1.1787-0.9588-2.1433-0.9588-2.8952v-10.787c0-0.82903 0.22705-1.6581 0.69057-2.4684 0.45881-0.81734 1.067-1.5505 1.8235-2.2147 0.75644-0.65598 1.5482-1.1716 2.3823-1.5505 0.82-0.372 1.6-0.561 2.31-0.561h20.735c0.59529 0 1.2564 0.18358 1.9894 0.54489 0.73292 0.36716 1.3941 0.81617 1.9894 1.3611 0.59645 0.5449 1.0729 1.119 1.4411 1.7352 0.36 0.609 0.54 1.191 0.54 1.734v5.9973zm-7.0398-3.6529c0-0.52034-0.21999-0.94129-0.66115-1.2664-0.44705-0.32623-0.94115-0.48643-1.4835-0.48643l-15.004-0.03508c-0.64352 0-1.2212 0.27829-1.7388 0.83488-0.5188 0.55074-0.77526 1.1541-0.77526 1.7996v1.0243h19.628l0.0353-1.8709" fill="#fff"/>

  <path d="m440 47.47h-19.161l-17.361-17.71-17.303 17.779h-19.492l23.733-23.6-20.928-23.803h16.825l16.825 17.904 17.234-17.904h17.827l-21.737 23.995 23.538 23.339zm-90.95-18.818v-9.7547c0-2.046-0.70623-3.7856-2.1081-5.2211-1.403-1.4355-3.6134-2.1485-6.6462-2.1485h-21.213c-0.82138 0-1.8355 0.30526-3.0552 0.92746-1.208 0.61055-2.2679 1.4355-3.168 2.441-0.90129 1.0172-1.356 2.1019-1.356 3.2438v9.291c0.0446 2.2266 0.64865 4.1025 1.8237 5.6172 1.1622 1.5252 2.906 2.2825 5.2197 2.2825h23.618c1.9154 0 3.5452-0.508 4.8789-1.5368s2.0059-2.7358 2.0059-5.1418zm13.747 4.4521c0 2.6228-0.74149 5.0416-2.2233 7.2461-1.4818 2.2138-3.282 3.9545-5.403 5.2549-2.1316 1.2887-4 1.933-5.631 1.933h-36.794c-3.0329 0-5.7109-0.77949-8.0481-2.3513-2.3372-1.5706-4.1375-3.5153-5.3913-5.8549-1.2656-2.3396-1.8919-4.5896-1.8919-6.7241v-17.813c0-1.9446 0.43242-3.7972 1.2879-5.5729 0.85428-1.7734 1.9824-3.3568 3.3842-4.7235 1.403-1.3679 2.9306-2.441 4.5946-3.2438 1.6533-0.79114 3.2491-1.1873 4.7532-1.1873h36.237c1.6298 0 3.6239 0.53131 6.007 1.5939 2.3819 1.051 4.5017 2.7812 6.349 5.1535 1.846 2.3851 2.7697 5.4588 2.7697 9.2117v17.078zm-85.89-0.135c0-2.1812-1.1175-3.2671-3.3396-3.2671h-29.967v6.3082h30.502c0.8437 0 1.5276-0.29479 2.0411-0.89367 0.51233-0.58725 0.7638-1.3108 0.7638-2.1474zm14.294 6.9175c0 0.8692-0.23854 1.8876-0.71915 3.0853-0.47825 1.1861-1.2526 2.2371-2.3349 3.1413-1.0834 0.90533-2.4512 1.3562-4.1281 1.3562h-54.165v-29.228h41.947c0.6275 0 1.4136-0.31692 2.3713-0.94844 0.95651-0.6222 1.436-1.5031 1.436-2.6344 0-0.79114-0.38778-1.6161-1.1516-2.4631-0.76381-0.84707-1.8237-1.2782-3.1574-1.2782h-41.445v-10.918h50.439c1.4935 0 2.9177 0.46373 4.2738 1.4005 1.3572 0.93911 2.4512 2.081 3.2714 3.4139 0.83314 1.3341 1.2421 2.5552 1.2421 3.6621v6.7253c0 1.2316-0.16922 2.2383-0.50059 3.0061-0.34195 0.78065-0.80963 1.4355-1.3913 1.9901-0.58167 0.55345-1.5499 1.3446-2.8954 2.3839 2.1093 1.4355 3.7967 2.7463 5.0387 3.9569 1.2432 1.1978 1.8696 2.5086 1.8696 3.9219v9.4261zm-111.15 7.6516h-23.504v-11.393h23.504v11.393zm18.409-29.828c0 2.0798-0.59225 4.0128-1.7662 5.8095-1.1868 1.7978-2.725 3.2217-4.6286 4.2738-1.9036 1.051-3.8519 1.5695-5.8249 1.5695h-33.74c-2.4054 0-4.5487-0.5185-6.4171-1.559-1.8696-1.0288-3.3972-2.2942-4.5946-3.7868-1.1845-1.4926-2.0964-2.9723-2.7003-4.4416-0.61574-1.4576-0.92361-2.5995-0.92361-3.4244l0.08-16.15h13.268v11.393c0 0.83659 0.2973 1.7967 0.88954 2.8826 0.58166 1.0731 1.3678 2.0111 2.3361 2.7917 0.96944 0.77949 2.0176 1.1745 3.1574 1.1745h20.496c1.356 0 2.5758-0.3612 3.658-1.0952 1.0834-0.72356 1.9154-1.6056 2.5076-2.6449 0.58166-1.0405 0.87895-1.9551 0.87895-2.7474l0.06-11.754h13.268v17.71zm-83.7 15.055c0-0.58724-0.22796-1.1302-0.67332-1.6266-0.44418-0.49752-0.99176-0.89367-1.6522-1.1989-0.64982-0.29362-1.1856-0.44044-1.5852-0.44044h-27.141c-1.2421 0-2.1187 0.4183-2.6099 1.2537-0.47826 0.83775-0.72855 1.4926-0.72855 1.9446 0 0.9729 0.31845 1.7524 0.95652 2.3513 0.62749 0.59889 1.2656 0.89251 1.9154 0.89251h28.371c0.62749 0 1.3114-0.32742 2.0411-0.97174 0.7403-0.65599 1.1058-1.39 1.1058-2.2045zm17.097 14.773h-14.363v-3.3114c-0.37485 0.81328-1.1386 1.5706-2.2679 2.2709-1.1398 0.68977-2.1657 1.0405-3.0775 1.0405h-38.893c-1.0482 0-2.0963-0.27148-3.1574-0.81444-1.0599-0.5418-1.926-1.2991-2.5864-2.2604-0.67332-0.97174-1.0153-2.0682-1.0376-3.2776-0.0235-2.3396-0.04583-5.3015-0.0799-8.8727-0.03408-3.5829-0.05757-5.4704-0.05757-5.6615 0-2.6787 0.71915-4.7818 2.1551-6.3082 1.4359-1.5368 3.1104-2.3047 5.027-2.3047h36.794c1.6992 0 3.1809 0.42877 4.4465 1.2887 1.2644 0.85873 2.1762 1.7291 2.7344 2.5878v-4.3169c0-0.90533-0.27261-1.8211-0.8202-2.7579-0.54759-0.92747-1.3114-1.707-2.3137-2.3175-1.0035-0.62102-2.1774-0.92747-3.5111-0.92747h-44.044v-11.528h49.665c2.0858 0 4.0693 0.50917 5.9377 1.5264 1.8707 1.0172 3.5217 2.328 4.9471 3.9557 1.4136 1.6161 2.5311 3.2997 3.3172 5.0405 0.7873 1.7524 1.1857 3.3009 1.1857 4.6688v32.279zm-50.689 15.462h-17.909l-31.528-33.568h-17.849v18.107h-13.884v-29.499h43.281c0.86603 0 1.7321-0.31692 2.5758-0.93795 0.84371-0.63384 1.2656-1.5147 1.2656-2.6344 0-0.81328-0.20564-1.4681-0.61574-1.9551-0.41128-0.4847-0.95769-0.83658-1.6193-1.0626-0.67214-0.21438-1.3678-0.3274-2.1093-0.3274h-42.778v-11.054h52.264c2.45 0 4.5476 0.87037 6.3149 2.6111 1.7544 1.7524 2.6322 3.8427 2.6322 6.2953v11.845c0 2.1019-0.43243 3.7297-1.2879 4.8832-0.85428 1.164-1.8813 1.9668-3.0775 2.4072-1.1974 0.44043-2.5652 0.7457-4.114 0.9263-1.5511 0.16895-2.463 0.30527-2.7368 0.39616l31.175 33.568" fill-rule="evenodd" fill="#5aaa65"/></svg>
